<?xml version="1.0" standalone="no"?>
<!DOCTYPE svg PUBLIC "-//W3C//DTD SVG 20010904//EN"
 "http://www.w3.org/TR/2001/REC-SVG-20010904/DTD/svg10.dtd">
<svg version="1.0" xmlns="http://www.w3.org/2000/svg"
 width="373.000000pt" height="373.000000pt" viewBox="0 0 373.000000 373.000000"
 preserveAspectRatio="xMidYMid meet">
<metadata>
Created by potrace 1.14, written by Peter Selinger 2001-2017
</metadata>
<g transform="translate(0.000000,373.000000) scale(0.100000,-0.100000)"
fill="#000000" stroke="none">
<path d="M2386 2762 c-10 -2 -131 -117 -268 -254 -237 -237 -250 -252 -244
-281 9 -42 237 -267 272 -267 23 0 108 82 458 438 96 98 96 97 -50 243 -120
118 -133 128 -168 121z"/>
<path d="M2786 2170 c-324 -324 -595 -590 -602 -590 -8 0 -187 173 -399 385
-212 212 -393 386 -403 386 -9 1 -23 0 -31 -1 -19 -2 -239 -227 -257 -263
l-15 -28 141 -143 c77 -79 140 -149 140 -156 0 -15 -138 -153 -169 -169 -18
-10 -49 17 -309 276 -481 478 -497 493 -522 493 -17 0 -59 -35 -142 -117 -66
-65 -124 -126 -129 -136 -27 -48 -24 -53 184 -259 111 -110 348 -345 527 -523
179 -177 335 -327 347 -334 12 -6 29 -8 39 -4 9 3 120 109 246 234 163 163
233 227 244 222 9 -3 116 -105 237 -225 122 -121 231 -223 242 -227 10 -5 27
-6 36 -4 9 3 346 335 748 738 616 617 731 737 731 760 0 39 -233 275 -271 275
-20 0 -147 -122 -613 -590z"/>
</g>
</svg>
