<?xml version="1.0" standalone="no"?>
<!DOCTYPE svg PUBLIC "-//W3C//DTD SVG 20010904//EN"
 "http://www.w3.org/TR/2001/REC-SVG-20010904/DTD/svg10.dtd">
<svg version="1.0" xmlns="http://www.w3.org/2000/svg"
 width="400.000000pt" height="400.000000pt" viewBox="0 0 400.000000 400.000000"
 preserveAspectRatio="xMidYMid meet">
<metadata>
Created by potrace 1.11, written by Peter Selinger 2001-2013
</metadata>
<g transform="translate(0.000000,400.000000) scale(0.100000,-0.100000)"
fill="#000000" stroke="none">
<path d="M2278 2551 c-142 -143 -258 -265 -258 -271 0 -16 244 -260 260 -260
7 0 129 116 271 258 l260 259 -137 136 c-75 75 -137 137 -138 137 0 0 -117
-117 -258 -259z"/>
<path d="M2922 2188 l-612 -613 -408 408 -407 407 -133 -133 c-72 -73 -132
-135 -132 -139 0 -4 68 -75 151 -157 125 -125 150 -153 140 -165 -19 -23 -185
-189 -205 -205 -16 -13 -53 21 -422 390 l-404 404 -135 -135 -135 -135 542
-543 542 -543 252 252 253 252 249 -250 250 -250 749 749 748 748 -135 135
-135 135 -613 -612z"/>
</g>
</svg>
